<?xml version="1.0" encoding="utf-8"?>
<!-- Generator: Adobe Illustrator 17.0.2, SVG Export Plug-In . SVG Version: 6.00 Build 0)  -->
<!DOCTYPE svg PUBLIC "-//W3C//DTD SVG 1.1//EN" "http://www.w3.org/Graphics/SVG/1.1/DTD/svg11.dtd">
<svg version="1.1" id="Calque_1" xmlns="http://www.w3.org/2000/svg" xmlns:xlink="http://www.w3.org/1999/xlink" x="0px" y="0px"
	 width="64px" height="64px" viewBox="0 0 64 64" enable-background="new 0 0 64 64" xml:space="preserve">
<g>
	<defs>
		<rect id="SVGID_1_" x="9.5" y="9.5" width="45" height="45"/>
	</defs>
	<clipPath id="SVGID_2_">
		<use xlink:href="#SVGID_1_"  overflow="visible"/>
	</clipPath>
	<g clip-path="url(#SVGID_2_)">
		<defs>
			<rect id="SVGID_3_" x="9.5" y="9.5" width="45" height="45"/>
		</defs>
		<clipPath id="SVGID_4_">
			<use xlink:href="#SVGID_3_"  overflow="visible"/>
		</clipPath>
		<path clip-path="url(#SVGID_4_)" fill="#F5685F" d="M54.356,24.292c0-6.812-5.522-12.335-12.334-12.335
			c-4.135,0-7.784,2.041-10.023,5.161c-2.237-3.12-5.888-5.161-10.021-5.161c-6.812,0-12.335,5.523-12.335,12.335
			c0,0.965,0.122,1.9,0.332,2.801C11.69,37.733,23.52,48.961,32,52.043c8.479-3.082,20.311-14.31,22.021-24.95
			C54.234,26.192,54.356,25.257,54.356,24.292"/>
	</g>
</g>
<g>
	<defs>
		<rect id="SVGID_5_" x="-98.5" y="-98.5" width="45" height="45"/>
	</defs>
	<clipPath id="SVGID_6_">
		<use xlink:href="#SVGID_5_"  overflow="visible"/>
	</clipPath>
	<g clip-path="url(#SVGID_6_)">
		<defs>
			<rect id="SVGID_7_" x="-98.5" y="-98.5" width="45" height="45"/>
		</defs>
		<clipPath id="SVGID_8_">
			<use xlink:href="#SVGID_7_"  overflow="visible"/>
		</clipPath>
		<path clip-path="url(#SVGID_8_)" fill="#C1E8E8" d="M-53.5-76c0,12.426-10.074,22.5-22.5,22.5S-98.5-63.574-98.5-76
			S-88.426-98.5-76-98.5S-53.5-88.426-53.5-76"/>
	</g>
</g>
<g>
	<defs>
		<circle id="SVGID_9_" cx="-76" cy="-76" r="22.5"/>
	</defs>
	<clipPath id="SVGID_10_">
		<use xlink:href="#SVGID_9_"  overflow="visible"/>
	</clipPath>
	<g clip-path="url(#SVGID_10_)">
		<defs>
			<rect id="SVGID_11_" x="-98.5" y="-98.5" width="45" height="45"/>
		</defs>
		<clipPath id="SVGID_12_">
			<use xlink:href="#SVGID_11_"  overflow="visible"/>
		</clipPath>
		<path clip-path="url(#SVGID_12_)" fill="#5C913B" d="M-63.578-96.547c-2.881-1.179-4.219,2.421-6.562,1.719
			c-2.344-0.704-5.469-2.265-7.5-0.312c-2.031,1.954-2.5,3.75,0,3.671c2.5-0.077,4.219-3.046,5.469-1.796s0.938,2.265-2.031,2.656
			c-2.969,0.39-6.173,0.859-7.891,0.859c-1.718,0-2.109,1.016-0.938,2.11c1.172,1.094-0.703,1.173-2.655,2.266
			c-1.954,1.094,0.469,1.562,2.109,2.5c1.64,0.938,2.89-0.235,3.594-1.798c0.703-1.562,3.725-3.437,4.988-3.204
			c1.262,0.235,1.262,0.86,1.028,1.954c-0.234,1.094,0.939,0.781,1.016-0.469c0.079-1.25,1.485-2.188,2.579-2.266
			c1.094-0.077,2.03,1.485,0.781,2.266c-1.25,0.781-2.5,1.406-0.938,1.797c1.562,0.39,2.655,2.421,0.859,3.281
			c-1.796,0.859-4.922,1.406-6.329,0.702c-1.406-0.702-4.609-1.719-5.469-1.171c-0.859,0.546-1.328,1.111-2.343,1.493
			c-1.016,0.382-5.156,2.257-5.235,4.679c-0.077,2.421-0.156,5.156,1.485,5.234c1.64,0.079,5.624-1.015,6.874-2.031
			c1.25-1.015,2.969-0.781,3.516,0.391c0.546,1.171,0.156,1.875-0.391,3.75c-0.546,1.875,0.359,2.812,1.234,4.452
			c0.876,1.641,1.579,2.579,1.579,3.75c0,1.173,1.251,2.344,3.126,0.391c1.875-1.954,3.593-5.781,4.374-7.188
			c0.781-1.406,1.407-4.531,2.345-5.156c0.938-0.625,2.421-2.11,1.328-1.875c-1.094,0.234-3.281-0.079-3.829-1.641
			c-0.546-1.561-2.89-4.53-1.796-4.843c1.094-0.312,2.344,1.736,2.812,2.704c0.469,0.968,1.094,2.139,2.031,2.451
			c0.937,0.312,2.969-2.09,3.594-2.451c0.625-0.36,0.156-1.845-1.094-1.689c-1.25,0.156-2.89,0-2.89-0.781
			c0-0.781,1.561-1.796,2.811-1.562c1.251,0.235,2.189,0.625,2.97,1.562c0.78,0.938,2.343,2.656,2.968,3.75
			c0.625,1.094,1.094,1.25,1.406-0.703c0.312-1.954,0.781-2.579,1.095-4.062C-53.187-82.641-56.703-93.734-63.578-96.547"/>
	</g>
</g>
<g>
	<defs>
		<rect id="SVGID_13_" x="9.5" y="-98.5" width="45" height="45"/>
	</defs>
	<clipPath id="SVGID_14_">
		<use xlink:href="#SVGID_13_"  overflow="visible"/>
	</clipPath>
	<g clip-path="url(#SVGID_14_)">
		<defs>
			<rect id="SVGID_15_" x="9.5" y="-98.5" width="45" height="45"/>
		</defs>
		<clipPath id="SVGID_16_">
			<use xlink:href="#SVGID_15_"  overflow="visible"/>
		</clipPath>
		<path clip-path="url(#SVGID_16_)" fill="#FFAC33" d="M48.25-61h-10c-2.756,0-5-2.243-5-5v-20c0-2.757,2.244-5,5-5h10
			c2.757,0,5,2.243,5,5v20C53.25-63.243,51.007-61,48.25-61 M38.25-86v20h7.5c0,0,2.5,0,2.5-2.5v-15c0-2.499-2.5-2.5-2.5-2.5H38.25z
			"/>
		<path clip-path="url(#SVGID_16_)" fill="#FFCC4D" d="M42-88.5c0-2.761-2.239-5-5-5H19.5c-2.761,0-5,2.239-5,5v30
			c0,2.761,2.239,5,5,5H37c2.761,0,5-2.239,5-5V-88.5z"/>
		<path clip-path="url(#SVGID_16_)" fill="#F4900C" d="M20.75-57.25c-0.69,0-1.25-0.559-1.25-1.25v-20c0-0.69,0.56-1.25,1.25-1.25
			S22-79.19,22-78.5v20C22-57.809,21.44-57.25,20.75-57.25"/>
		<path clip-path="url(#SVGID_16_)" fill="#F4900C" d="M28.25-57.25c-0.69,0-1.25-0.559-1.25-1.25v-20c0-0.69,0.56-1.25,1.25-1.25
			s1.25,0.56,1.25,1.25v20C29.5-57.809,28.94-57.25,28.25-57.25"/>
		<path clip-path="url(#SVGID_16_)" fill="#F4900C" d="M35.75-57.25c-0.691,0-1.25-0.559-1.25-1.25v-20c0-0.69,0.559-1.25,1.25-1.25
			S37-79.19,37-78.5v20C37-57.809,36.441-57.25,35.75-57.25"/>
	</g>
</g>
<g>
	<defs>
		<path id="SVGID_17_" d="M17-96c-1.381,0-2.5,1.119-2.5,2.5V-56c0,1.381,1.119,2.5,2.5,2.5h22.5c1.381,0,2.5-1.119,2.5-2.5v-37.5
			c0-1.381-1.119-2.5-2.5-2.5H17z"/>
	</defs>
	<clipPath id="SVGID_18_">
		<use xlink:href="#SVGID_17_"  overflow="visible"/>
	</clipPath>
	<g clip-path="url(#SVGID_18_)">
		<defs>
			<rect id="SVGID_19_" x="9.5" y="-98.5" width="45" height="45"/>
		</defs>
		<clipPath id="SVGID_20_">
			<use xlink:href="#SVGID_19_"  overflow="visible"/>
		</clipPath>
		<path clip-path="url(#SVGID_20_)" fill="#FFAC33" d="M40.75-91c-1.675,0-3.077,1.106-3.559,2.621
			C36.93-88.45,36.66-88.5,36.375-88.5c-0.734,0-1.399,0.262-1.933,0.686c-0.282-2.493-2.374-4.436-4.942-4.436
			c-2.468,0-4.505,1.792-4.914,4.144c-0.388-0.246-0.844-0.394-1.336-0.394c-0.624,0-1.186,0.236-1.624,0.614
			C20.88-89.711,19.092-91,17-91c-2.761,0-5-6.25-5,5c0,2.761,2.239,5,5,5c2.092,0,3.88-1.289,4.626-3.114
			c0.438,0.378,1,0.614,1.624,0.614c0.846,0,1.591-0.423,2.044-1.066c0.887,1.389,2.435,2.316,4.206,2.316
			c1.626,0,3.056-0.789,3.97-1.991c0.455,1.164,1.58,1.991,2.905,1.991c1.186,0,2.206-0.669,2.736-1.643
			c0.496,0.244,1.048,0.393,1.639,0.393c2.071,0,3.75-1.679,3.75-3.75C44.5-93.5,42.821-91,40.75-91"/>
	</g>
</g>
<g>
	<defs>
		<rect id="SVGID_21_" x="9.5" y="-98.5" width="45" height="45"/>
	</defs>
	<clipPath id="SVGID_22_">
		<use xlink:href="#SVGID_21_"  overflow="visible"/>
	</clipPath>
	<g clip-path="url(#SVGID_22_)">
		<defs>
			<rect id="SVGID_23_" x="9.5" y="-98.5" width="45" height="45"/>
		</defs>
		<clipPath id="SVGID_24_">
			<use xlink:href="#SVGID_23_"  overflow="visible"/>
		</clipPath>
		<path clip-path="url(#SVGID_24_)" fill="#E1E8ED" d="M44.5-93.5c0-2.5-2.5-5-5-5H17c-2.5,0-5,2.5-5,5v2.5
			c0,0.12,0.019,0.235,0.035,0.349C12.012-90.015,12-89.307,12-88.5c0,2.761,2.239,5,5,5c2.092,0,3.88-1.289,4.626-3.114
			c0.438,0.378,1,0.614,1.624,0.614c0.846,0,1.591-0.423,2.044-1.066c0.887,1.389,2.435,2.316,4.206,2.316
			c1.626,0,3.056-0.789,3.97-1.991c0.455,1.164,1.58,1.991,2.905,1.991c1.186,0,2.206-0.669,2.736-1.643
			C39.607-86.149,40.159-86,40.75-86c2.071,0,3.75-1.679,3.75-3.75c0-0.386-0.006-0.738-0.02-1.06c0.005-0.064,0.02-0.125,0.02-0.19
			V-93.5z"/>
	</g>
</g>
<g>
	<defs>
		<rect id="SVGID_25_" x="-98.5" y="9.5" width="45" height="45"/>
	</defs>
	<clipPath id="SVGID_26_">
		<use xlink:href="#SVGID_25_"  overflow="visible"/>
	</clipPath>
	<g clip-path="url(#SVGID_26_)">
		<defs>
			<rect id="SVGID_27_" x="-98.5" y="9.5" width="45" height="45"/>
		</defs>
		<clipPath id="SVGID_28_">
			<use xlink:href="#SVGID_27_"  overflow="visible"/>
		</clipPath>
		<path clip-path="url(#SVGID_28_)" fill="#E0EFCA" d="M-96,17c-2.5,0-2.5,2.5-2.5,2.5v25c0,0,0,2.5,2.5,2.5h40
			c2.5,0,2.5-2.5,2.5-2.5v-25c0,0,0-2.5-2.5-2.5H-96z"/>
		<rect x="-82.25" y="17.001" clip-path="url(#SVGID_28_)" fill="#9AAAB4" width="12.5" height="30.077"/>
		<path clip-path="url(#SVGID_28_)" fill="#67757F" d="M-84.75,34.539c0-3.724-6.866-3.481-6.866-5.73c0-1.087,1.041-1.62,2.25-1.62
			c2.03,0,2.393,1.306,3.312,1.306c0.651,0,0.965-0.41,0.965-0.87c0-1.07-1.62-1.878-3.174-2.157v-1.031
			c0-0.644-0.521-1.165-1.165-1.165c-0.644,0-1.165,0.521-1.165,1.165v1.066c-1.693,0.387-3.15,1.562-3.15,3.476
			c0,3.577,6.865,3.432,6.865,5.947c0,0.869-0.942,1.738-2.489,1.738c-2.321,0-3.095-1.571-4.037-1.571
			c-0.46,0-0.87,0.386-0.87,0.97c0,0.926,1.55,2.039,3.684,2.351c0,0.001-0.002,0.005-0.002,0.005v1.166
			c0,0.642,0.522,1.165,1.166,1.165c0.643,0,1.165-0.523,1.165-1.165v-1.166c0-0.012-0.006-0.024-0.008-0.036
			C-86.351,38.024-84.75,36.775-84.75,34.539"/>
	</g>
</g>
</svg>
